<?xml version="1.0" encoding="UTF-8"?>
<svg width="300px" height="300px" viewBox="0 0 300 300" version="1.1" xmlns="http://www.w3.org/2000/svg" xmlns:xlink="http://www.w3.org/1999/xlink">
  <g id="Favicon" stroke="none" stroke-width="1" fill="none" fill-rule="evenodd">
    <g id="vinyl" transform="translate(25.000000, 25.000000)" stroke="#FFFFFF">
      <circle id="Oval" stroke-width="8" cx="125" cy="125" r="125"></circle>
      <circle id="Oval" stroke-width="6" cx="125" cy="125" r="38.5802469"></circle>
      <circle id="Oval" stroke-width="4" cx="125" cy="125" r="4.62962963"></circle>
      <path d="M33.9506173,125.514403 C33.9506173,113.662296 36.2021765,102.336254 40.3015042,91.9406359 C47.1335276,74.6140378 59.097104,59.872837 74.3194412,49.5886882 C88.9338177,39.7157235 106.550463,33.9506173 125.514403,33.9506173" id="Shape" stroke-width="4" stroke-linecap="round"></path>
      <path d="M15.4320988,125.514403 C15.4320988,118.876469 16.0197733,112.375639 17.1461969,106.061409 C23.109415,72.6157314 44.1775183,44.3993896 73.042407,28.7193458 C88.6405291,20.2455684 106.515392,15.4320988 125.514403,15.4320988" id="Shape" stroke-width="4" stroke-linecap="round"></path>
      <path d="M54.526749,124.485597 C54.526749,111.01781 58.3317172,98.4388131 64.9265424,87.7654154 C68.0268239,82.7487713 71.7422902,78.1524466 75.968711,74.0840706 C88.5471418,61.9735426 105.646557,54.526749 124.485597,54.526749" id="Shape" stroke-width="4" stroke-linecap="round"></path>
      <path d="M216.049383,125.514403 C216.049383,137.366511 213.797824,148.692553 209.698496,159.088171 C202.866472,176.414769 190.902896,191.15597 175.680559,201.440118 C161.066751,211.313083 143.449537,217.078189 124.485597,217.078189" id="Shape" stroke-width="4" stroke-linecap="round"></path>
      <path d="M234.567901,124.485597 C234.567901,131.123531 233.980227,137.624361 232.853803,143.938591 C226.890585,177.384269 205.822482,205.60061 176.957593,221.280654 C161.359471,229.754432 143.484608,234.567901 124.485597,234.567901" id="Shape" stroke-width="4" stroke-linecap="round"></path>
      <path d="M194.444444,125.514403 C194.444444,138.98219 190.639476,151.561187 184.044651,162.234585 C180.944369,167.251229 177.228903,171.847553 173.002482,175.915929 C160.424052,188.026457 143.324636,195.473251 124.485597,195.473251" id="Shape" stroke-width="4" stroke-linecap="round"></path>
    </g>
  </g>
</svg>
