<?xml version="1.0" standalone="no"?>
<!DOCTYPE svg PUBLIC "-//W3C//DTD SVG 20010904//EN"
 "http://www.w3.org/TR/2001/REC-SVG-20010904/DTD/svg10.dtd">
<svg version="1.0" xmlns="http://www.w3.org/2000/svg"
 width="260.000000pt" height="260.000000pt" viewBox="0 0 260.000000 260.000000"
 preserveAspectRatio="xMidYMid meet">
<metadata>
Created by potrace 1.11, written by Peter Selinger 2001-2013
</metadata>
<g transform="translate(0.000000,260.000000) scale(0.100000,-0.100000)"
fill="#000000" stroke="none">
<path d="M1252 2408 c-39 -8 -85 -52 -547 -513 -524 -524 -519 -519 -519 -595
0 -67 16 -94 119 -196 57 -56 106 -100 109 -97 3 4 6 1 6 -5 0 -16 281 -295
323 -321 112 -69 259 7 275 142 7 63 -20 114 -108 201 -44 44 -77 82 -75 85 3
2 66 5 140 5 114 1 135 -1 136 -14 1 -8 2 -189 3 -401 l1 -386 28 -40 c53 -76
160 -108 235 -69 46 24 1003 986 1020 1026 18 45 17 111 -3 150 -20 38 -976
995 -1013 1014 -40 20 -82 24 -130 14z m273 -651 c4 5 5 3 2 -3 -7 -12 65 -87
76 -79 4 3 5 2 2 -2 -3 -4 76 -89 177 -190 l182 -182 -234 -235 c-129 -130
-238 -236 -241 -236 -3 0 -4 12 -1 26 3 16 -1 30 -9 35 -9 6 -10 9 -2 9 15 0
14 99 -1 119 -8 11 -8 13 0 8 16 -9 16 452 0 472 -8 11 -8 13 0 8 8 -5 11 33
10 133 -1 126 0 137 15 124 8 -8 19 -11 24 -7z m-411 -18 c-3 -20 0 -28 8 -23
8 5 8 3 2 -7 -5 -8 -10 -52 -10 -99 -3 -138 2 -126 -46 -124 -24 1 -49 -3 -57
-10 -10 -7 -13 -7 -8 0 4 7 -20 10 -78 10 -47 0 -86 3 -87 6 -3 8 262 278 273
278 3 0 5 -14 3 -31z"/>
</g>
</svg>
