<?xml version="1.0" encoding="UTF-8"?>
<svg width="250px" height="250px" viewBox="0 0 250 250" version="1.1" xmlns="http://www.w3.org/2000/svg" xmlns:xlink="http://www.w3.org/1999/xlink">
    <!-- Generator: Sketch 46.2 (44496) - http://www.bohemiancoding.com/sketch -->
    <title>Final</title>
    <desc>Created with Sketch.</desc>
    <defs></defs>
    <g id="Logo" stroke="none" stroke-width="1" fill="none" fill-rule="evenodd">
        <g id="Final" stroke="#5D5D5D" stroke-width="2">
            <g id="Group-3" transform="translate(41.000000, 41.000000)">
                <rect id="Rectangle-Copy-14" transform="translate(84.000000, 84.000000) scale(-1, -1) translate(-84.000000, -84.000000) " x="72" y="7" width="24" height="154" rx="12"></rect>
                <rect id="Rectangle-Copy-15" transform="translate(116.269553, 115.917785) scale(-1, -1) rotate(45.000000) translate(-116.269553, -115.917785) " x="104.269553" y="57.9177849" width="24" height="116" rx="12"></rect>
                <rect id="Rectangle-Copy-16" transform="translate(116.096194, 51.006836) scale(-1, 1) rotate(45.000000) translate(-116.096194, -51.006836) " x="104.096194" y="-6.9931637" width="24" height="116" rx="12"></rect>
                <rect id="Rectangle-Copy-17" transform="translate(51.096194, 51.006836) rotate(45.000000) translate(-51.096194, -51.006836) " x="39.0961941" y="-6.9931637" width="24" height="116" rx="12"></rect>
                <path d="M34.4055916,66.4055916 C27.7781746,66.4055916 22.4055916,71.7781746 22.4055916,78.4055916 L22.4055916,122.405592 C22.4055916,129.033009 27.7781746,134.405592 34.4055916,134.405592 C41.0330086,134.405592 46.4055916,129.033009 46.4055916,122.405592 L46.4055916,78.4055916 C46.4055916,71.7781746 41.0330086,66.4055916 34.4055916,66.4055916 Z" id="Rectangle-Copy-18" transform="translate(34.405592, 100.405592) scale(1, -1) rotate(45.000000) translate(-34.405592, -100.405592) "></path>
                <rect id="Rectangle-Copy-19" transform="translate(51.383096, 84.336838) scale(1, -1) rotate(90.000000) translate(-51.383096, -84.336838) " x="39.3830961" y="39.7199343" width="24" height="89.2338078" rx="12"></rect>
            </g>
        </g>
    </g>
</svg>