<svg xmlns="http://www.w3.org/2000/svg" version="1.0" width="967.000000pt" height="1053.000000pt" viewBox="0 0 967.000000 1053.000000" preserveAspectRatio="xMidYMid meet"><g transform="translate(0.000000,1053.000000) scale(0.100000,-0.100000)" fill="#ffffff" stroke="none"><path d="M4683 10165 c-29 -8 -70 -23 -90 -34 -21 -11 -895 -514 -1943 -1119 -1810 -1044 -1909 -1102 -1975 -1168 -80 -79 -128 -164 -150 -271 -22 -102 -22 -4434 0 -4536 19 -92 76 -195 149 -272 58 -60 157 -119 1951 -1153 1040 -599 1909 -1099 1932 -1111 113 -57 297 -66 418 -20 32 12 917 517 1965 1121 1870 1079 1906 1100 1972 1169 40 41 80 96 97 132 65 134 61 -40 61 2402 0 2446 5 2268 -62 2405 -21 44 -54 88 -102 135 -68 67 -156 119 -1986 1175 -1053 607 -1942 1115 -1974 1128 -75 31 -190 38 -263 17z m5 -1801 c-5 -4 -3551 -474 -3555 -471 -1 2 797 465 1775 1030 l1777 1026 3 -791 c1 -435 1 -792 0 -794z m1990 556 c975 -562 1771 -1024 1769 -1026 -2 -2 -527 66 -1168 152 -1019 136 -1315 175 -1874 249 -66 8 -203 27 -304 40 -101 14 -190 25 -197 25 -12 0 -14 125 -14 796 0 437 3 793 8 791 4 -2 805 -464 1780 -1027z m-2088 -784 c0 -6 -2520 -4370 -2528 -4378 -8 -8 -1293 3808 -1292 3840 0 14 9 27 23 33 21 10 3694 505 3765 508 17 0 32 -1 32 -3z m2306 -246 c1977 -263 1914 -253 1914 -303 0 -31 -1283 -3838 -1291 -3829 -6 6 -2490 4308 -2518 4360 -10 18 -9 22 3 22 9 0 860 -112 1892 -250z m-815 -2058 c1040 -1800 1283 -2228 1270 -2234 -19 -8 -5087 -10 -5117 -2 -19 5 105 224 1265 2234 707 1226 1288 2229 1291 2230 3 0 584 -1002 1291 -2228z m-4189 -2270 c3 -15 -1062 -472 -1100 -472 -36 0 -59 17 -71 51 -8 23 -11 586 -10 1993 l0 1961 589 -1760 c325 -968 591 -1766 592 -1773z m6978 1569 l0 -1948 -23 -34 c-15 -23 -35 -37 -59 -43 -34 -8 -73 6 -563 214 -289 123 -528 227 -532 233 -4 7 1167 3527 1174 3527 2 0 3 -877 3 -1949z m-1638 -1838 c-49 -54 -610 -665 -1246 -1358 -636 -693 -1163 -1264 -1171 -1270 -9 -6 -23 -6 -39 0 -13 6 -437 460 -942 1010 -505 550 -1065 1161 -1246 1358 l-329 357 2532 0 2531 0 -90 -97z m-4096 -1164 c588 -641 1078 -1176 1089 -1189 l20 -23 -20 11 c-11 5 -420 242 -910 525 -490 282 -982 567 -1095 632 -113 65 -286 165 -385 222 -684 393 -969 560 -972 569 -2 5 252 118 564 251 l568 241 36 -36 c20 -21 517 -562 1105 -1203z m5044 987 c294 -125 538 -231 543 -235 6 -6 -944 -558 -3191 -1853 l-203 -117 43 48 c24 27 531 580 1127 1229 l1085 1181 30 -13 c17 -7 272 -115 566 -240z"/><path d="M4565 5984 c-11 -2 -45 -9 -75 -15 -196 -36 -428 -126 -613 -237 -188 -113 -302 -201 -455 -348 -110 -107 -112 -110 -112 -154 0 -44 2 -47 112 -154 153 -147 267 -235 455 -348 151 -90 279 -146 453 -196 190 -55 202 -57 435 -57 233 1 246 2 450 61 195 57 409 157 595 279 114 75 246 175 340 260 112 101 120 110 120 155 0 45 -8 54 -120 155 -281 252 -619 447 -935 539 -191 55 -212 58 -425 61 -113 2 -214 2 -225 -1z m338 -160 c168 -38 318 -153 396 -303 57 -110 75 -179 75 -291 0 -283 -197 -532 -471 -594 -313 -70 -625 102 -725 401 -33 98 -33 288 0 386 64 192 234 351 427 398 90 22 207 23 298 3z m-677 -95 c-58 -62 -88 -104 -121 -173 -61 -125 -78 -199 -78 -326 0 -127 17 -201 78 -326 33 -69 63 -112 120 -172 l75 -80 -52 19 c-248 92 -564 297 -753 488 l-69 71 69 71 c129 130 331 280 499 369 79 43 290 139 305 140 1 0 -31 -37 -73 -81z m1279 -39 c209 -103 439 -261 598 -411 l52 -49 -52 -49 c-213 -200 -564 -419 -813 -506 l-75 -26 67 68 c146 150 210 306 210 513 0 207 -64 363 -210 513 l-67 68 75 -26 c41 -15 138 -57 215 -95z"/><path d="M4651 5576 c-45 -16 -48 -28 -11 -44 57 -26 79 -121 43 -183 -48 -81 -187 -74 -224 11 -8 16 -17 30 -21 30 -4 0 -15 -26 -24 -57 -49 -169 32 -351 194 -430 79 -39 192 -44 275 -13 88 33 155 93 197 175 33 64 35 74 35 165 0 91 -2 101 -35 165 -63 124 -182 196 -323 194 -40 0 -87 -6 -106 -13z"/></g></svg>