<svg width="640" height="640" viewBox="0 0 640 640" fill="none" xmlns="http://www.w3.org/2000/svg">
<g clip-path="url(#clip0)">
<circle cx="320" cy="320" r="300" fill="#11100B"/>
<path d="M278.514 170C274.365 170 271.468 165.889 272.864 161.982L314.35 45.8213C316.246 40.512 323.754 40.512 325.65 45.8213L367.136 161.982C368.532 165.889 365.635 170 361.486 170H278.514Z" fill="#EFC61E"/>
<path d="M470 278.514C470 274.365 474.111 271.468 478.018 272.864L594.179 314.35C599.488 316.246 599.488 323.754 594.179 325.65L478.018 367.136C474.111 368.532 470 365.635 470 361.486L470 278.514Z" fill="#EFC61E"/>
<path d="M170 278.514C170 274.365 165.889 271.468 161.982 272.864L45.8213 314.35C40.512 316.246 40.512 323.754 45.8213 325.65L161.982 367.136C165.889 368.532 170 365.635 170 361.486L170 278.514Z" fill="#EFC61E"/>
<path d="M278.514 470C274.365 470 271.468 474.111 272.864 478.018L314.35 594.179C316.246 599.488 323.754 599.488 325.65 594.179L367.136 478.018C368.532 474.111 365.635 470 361.486 470H278.514Z" fill="#EFC61E"/>
<path d="M396.731 184.599C393.797 181.665 394.655 176.71 398.405 174.934L509.878 122.131C514.973 119.717 520.283 125.027 517.869 130.122L465.066 241.595C463.29 245.345 458.335 246.203 455.401 243.269L396.731 184.599Z" fill="#EFC61E"/>
<path d="M455.401 396.731C458.335 393.797 463.29 394.655 465.066 398.405L517.869 509.878C520.283 514.973 514.973 520.282 509.878 517.869L398.405 465.066C394.655 463.29 393.797 458.335 396.731 455.401L455.401 396.731Z" fill="#EFC61E"/>
<path d="M243.269 184.599C246.203 181.665 245.345 176.71 241.595 174.934L130.122 122.131C125.027 119.717 119.717 125.027 122.131 130.122L174.934 241.595C176.71 245.345 181.665 246.203 184.599 243.269L243.269 184.599Z" fill="#EFC61E"/>
<path d="M184.599 396.731C181.665 393.797 176.71 394.655 174.934 398.405L122.131 509.878C119.717 514.973 125.027 520.282 130.122 517.869L241.595 465.066C245.345 463.29 246.203 458.335 243.269 455.401L184.599 396.731Z" fill="#EFC61E"/>
<circle cx="320" cy="320" r="155" fill="#11100B"/>
<circle cx="320" cy="320" r="140" fill="#EFC61E"/>
<circle cx="320" cy="320" r="125" fill="#11100B"/>
<circle cx="320" cy="320" r="105" fill="#EFC61E"/>
<circle cx="404.19" cy="116.746" r="20" transform="rotate(22.5 404.19 116.746)" fill="#EFC61E"/>
<circle cx="235.81" cy="523.253" r="20" transform="rotate(22.5 235.81 523.253)" fill="#EFC61E"/>
<circle cx="523.253" cy="404.19" r="20" transform="rotate(112.5 523.253 404.19)" fill="#EFC61E"/>
<circle cx="116.746" cy="235.81" r="20" transform="rotate(112.5 116.746 235.81)" fill="#EFC61E"/>
<circle cx="523.253" cy="235.81" r="20" transform="rotate(67.5 523.253 235.81)" fill="#EFC61E"/>
<circle cx="116.746" cy="404.19" r="20" transform="rotate(67.5 116.746 404.19)" fill="#EFC61E"/>
<circle cx="404.19" cy="523.253" r="20" transform="rotate(157.5 404.19 523.253)" fill="#EFC61E"/>
<circle cx="235.81" cy="116.747" r="20" transform="rotate(157.5 235.81 116.747)" fill="#EFC61E"/>
</g>
<defs>
<clipPath id="clip0">
<rect width="640" height="640" fill="white"/>
</clipPath>
</defs>
</svg>
