<?xml version="1.0" encoding="UTF-8"?>
<svg width="37px" height="40px" viewBox="0 -1 37 42" version="1.1" xmlns="http://www.w3.org/2000/svg" xmlns:xlink="http://www.w3.org/1999/xlink">
  <g id="Sign-In-/-Sign-Up" stroke="none" stroke-width="1" fill="none" fill-rule="evenodd">
    <g id="LifeTales-Logo-Symbol---Color---RGB" transform="translate(-370.000000, -210.000000)">
      <g id="Group-4" transform="translate(370.000000, 210.000000)">
        <path d="M2.85166667,1.56490741 C3.70611111,0.61537037 4.89583333,0.0283333333 6.23101852,0.0283333333 L19.639537,0.0283333333 C20.974537,0.0283333333 22.1647222,0.61537037 23.0190741,1.56509259 C23.8503704,2.48861111 24.359537,3.75703704 24.359537,5.14935185 C24.359537,7.59111111 23.0962963,10.3083333 21.625,13.4738889 C20.0712037,16.8168519 18.2702778,20.6914815 17.6302778,25.0618519 L31.6693519,25.0618519 C32.9947222,25.0618519 34.1881481,25.6510185 35.0463889,26.6038889 C35.8759259,27.525 36.3893519,28.7900926 36.3893519,30.1801852 C36.3893519,32.7680556 35.302963,35.375463 33.2233333,37.2469444 C31.4188889,38.8709259 28.8787963,39.935 25.6726852,39.935 L10.5844444,39.935 C7.69962963,39.935 4.9487037,38.7465741 2.97935185,36.545463 C1.20722222,34.5651852 0.0789814815,31.7790741 0.0789814815,28.3256481 C0.0789814815,22.1056481 2.50083333,16.895 4.52305556,12.5447222 C5.12555556,11.2487963 5.69101852,10.032037 6.13231481,8.91583333 L3.5187963,8.91583333 C3.17972222,8.91537037 2.86157407,8.76 2.65074074,8.49481481 C2.2887963,8.0387963 1.99962963,7.50648148 1.80314815,6.92361111 C1.61435185,6.36425926 1.51148148,5.76518519 1.51148148,5.14935185 C1.51148148,3.75703704 2.02064815,2.48861111 2.85166667,1.56490741" id="Fill-2" fill="#280050"></path>
        <path d="M17.8699074,31.7280556 L27.1685185,31.7280556 C27.0260185,31.2384259 26.9497222,30.7187037 26.9497222,30.1801852 C26.9497222,29.1067593 27.2559259,28.1078704 27.7775,27.2841667 L17.4112963,27.2841667 L17.4030556,27.4643519 C17.3942593,27.6896296 17.3896296,27.975463 17.3896296,28.3256481 C17.3896296,29.0925 17.4537037,29.815463 17.5742593,30.4924074 C17.6508333,30.922963 17.7501852,31.3351852 17.8699074,31.7280556" id="Fill-3" fill="#7A69BF"></path>
        <path d="M16.9273148,8.91583333 L8.4975,8.91583333 C7.99203704,10.3432407 7.29240741,11.8480556 6.53675926,13.4737037 C4.60962963,17.6193519 2.30138889,22.5852778 2.30138889,28.3256481 C2.30138889,31.1997222 3.20657407,33.4809259 4.62851852,35.0697222 C6.16425926,36.7861111 8.31861111,37.7126852 10.5844444,37.7126852 L19.2976852,37.7126852 C18.9394444,37.4261111 18.5982407,37.1132407 18.2763889,36.774537 C17.8081481,36.2814815 17.38,35.7328704 17.0013889,35.1314815 C16.6335185,34.5471296 16.3135185,33.9163889 16.0498148,33.2427778 C15.7606481,32.504537 15.5362037,31.7135185 15.3867593,30.8740741 C15.2433333,30.0694444 15.1673148,29.2188889 15.1673148,28.3256481 C15.1673148,28.0684259 15.1750926,27.7505556 15.189537,27.3774074 C15.2036111,27.0255556 15.2212963,26.7147222 15.242037,26.4475 C15.6638889,21.0366667 17.7988889,16.4443519 19.6113889,12.545 C20.9703704,9.62111111 22.1371296,7.11092593 22.1371296,5.14935185 C22.1371296,4.32055556 21.8457407,3.57814815 21.3699074,3.04962963 C20.9258333,2.55592593 20.3156481,2.25064815 19.639537,2.25064815 C18.9634259,2.25064815 18.3534259,2.55574074 17.9093519,3.04944444 C17.4337963,3.57787037 17.1423148,4.32055556 17.1423148,5.14935185 C17.1423148,5.53361111 17.2021296,5.89490741 17.3122222,6.22064815 C17.4234259,6.55074074 17.5883333,6.8537037 17.7953704,7.11444444 C18.1763889,7.59388889 18.0968519,8.29157407 17.6175,8.67268519 C17.4131481,8.835 17.1694444,8.91351852 16.9273148,8.91351852 L16.9273148,8.91583333" id="Fill-4" fill="#7A69BF"></path>
        <path d="M6.23101852,2.25064815 C5.55490741,2.25064815 4.94490741,2.55574074 4.50083333,3.04944444 C4.02527778,3.57787037 3.7337963,4.32055556 3.7337963,5.14935185 C3.7337963,5.53361111 3.79361111,5.89490741 3.9037037,6.22064815 C3.95935185,6.38564815 4.02842593,6.54398148 4.10925926,6.69351852 L15.1393519,6.69351852 C14.9965741,6.20111111 14.9199074,5.68157407 14.9199074,5.14935185 C14.9199074,4.07574074 15.2226852,3.07564815 15.7424074,2.25064815 L6.23101852,2.25064815" id="Fill-5" fill="#BFB3FF"></path>
        <path d="M21.0111111,33.9503704 L18.8761111,33.9503704 C19.1746296,34.4247222 19.5123148,34.8572222 19.8822222,35.2467593 C20.6398148,36.0442593 21.5343519,36.6586111 22.5087963,37.0741667 C23.4939815,37.494537 24.5682407,37.7126852 25.6726852,37.7126852 C28.2833333,37.7126852 30.3192593,36.8752778 31.7388889,35.5978704 C33.3337963,34.1626852 34.1669444,32.1635185 34.1669444,30.1801852 C34.1669444,29.3553704 33.8727778,28.6164815 33.3972222,28.0884259 C32.9497222,27.5915741 32.3383333,27.2841667 31.6693519,27.2841667 C31.0008333,27.2841667 30.3891667,27.5915741 29.9418519,28.0881481 C29.4664815,28.6162963 29.1721296,29.3553704 29.1721296,30.1801852 C29.1721296,30.565463 29.2322222,30.9255556 29.3432407,31.2512037 C29.4564815,31.5831481 29.6227778,31.8847222 29.8318519,32.1448148 C30.2152778,32.6216667 30.1394444,33.3194444 29.6625926,33.7028704 C29.4576852,33.8675 29.2122222,33.9475 28.9682407,33.9472222 L28.9682407,33.9503704 L21.0111111,33.9503704" id="Fill-6" fill="#BFB3FF"></path>
      </g>
    </g>
  </g>
</svg>
